# xmcd
#
# Track frame offsets:
#	150
#	18087
#	34651
#	55956
#	75408
#	100830
#	117860
#	138131
#	150458
#	169908
#	183960
#	207064
#
# Disc length: 3106 seconds
#
# Revision: 0
# Processed by: cddbd v1.5.1PL2 Copyright (c) Steve Scherf et al.
# Submitted via: dBpowerAMP V4.0
#
DISCID=870c200c
DTITLE=Vieja Estacion - Todo Perro Tiene Su Dia
DYEAR=2006
DGENRE=Blues
TTITLE0=Hacia Donde Voy
TTITLE1=Sin Tratos
TTITLE2=Directo Hacia El Infierno
TTITLE3=Hoy Fue Como Ayer
TTITLE4=Dame El Remedio
TTITLE5=61 Poemas Borrachos (El Blues De Juanelo)
TTITLE6=Mendigando
TTITLE7=Fabylon Shuffle
TTITLE8=Refugio
TTITLE9=El Juego
TTITLE10=Negro Corazon
TTITLE11=Piedras En El Agua
EXTD=
EXTT0=
EXTT1=
EXTT2=
EXTT3=
EXTT4=
EXTT5=
EXTT6=
EXTT7=
EXTT8=
EXTT9=
EXTT10=
EXTT11=
PLAYORDER=
